<?xml version="1.0" encoding="UTF-8"?>
<svg width="252px" height="252px" viewBox="0 0 252 252" version="1.1" xmlns="http://www.w3.org/2000/svg" xmlns:xlink="http://www.w3.org/1999/xlink">
    <!-- Generator: Sketch 51.3 (57544) - http://www.bohemiancoding.com/sketch -->
    <title>Group 9</title>
    <desc>Created with Sketch.</desc>
    <defs>
        <polygon id="path-1" points="0.0541607898 0.122403385 255.877597 0.122403385 255.877597 255.945839 0.0541607898 255.945839"></polygon>
    </defs>
    <g id="Symbols" stroke="none" stroke-width="1" fill="none" fill-rule="evenodd">
        <g id="Group-9" transform="translate(-2.000000, -2.000000)">
            <g id="Group-4">
                <mask id="mask-2" fill="white">
                    <use xlink:href="#path-1"></use>
                </mask>
                <g id="Clip-2"></g>
                <path d="M127.99314,253.724886 C197.425467,253.724886 253.711165,197.439188 253.711165,128.007221 C253.711165,58.5748942 197.425467,2.28883498 127.99314,2.28883498 C58.5608124,2.28883498 2.27511425,58.5748942 2.27511425,128.007221 C2.27511425,197.439188 58.5608124,253.724886 127.99314,253.724886" id="Fill-1" stroke="#FFFFFF" stroke-width="0.15" fill="#003164" mask="url(#mask-2)"></path>
            </g>
            <g id="SingleSource-SVG-logo-4-Copy" transform="translate(72.000000, 64.000000)" fill="#FFFFFF">
                <path d="M60.9950008,32.0667254 C64.4544995,32.0578521 67.7750868,33.4358593 70.2228845,35.8961956 C72.6706821,38.3565318 74.0441453,41.6966201 74.0397271,45.1782723 C74.0397271,59.3407446 87.6645873,63.7613043 98.9026107,63.7779857 C104.789855,63.7995553 109.935103,67.7822479 111.466655,73.503217 C111.846586,74.7795698 112.025557,76.1079303 111.997063,77.4400173 C111.953601,80.9262944 110.528728,84.2507865 108.03892,86.675096 C105.549111,89.0994055 102.200506,90.4228164 98.7368582,90.3513879 C84.6478908,90.1512116 80.0896954,103.813243 79.9239429,115.156566 C79.7861167,122.378166 73.86411,128.12374 66.6882078,127.997974 C59.5123056,127.872208 53.792672,121.922599 53.9047783,114.700549 C54.0168845,107.478498 59.9183909,101.711599 67.0946949,101.81148 C80.6864046,102.011657 85.4269278,89.2670997 85.8744597,78.1906784 C85.8488931,77.7239548 85.8488931,77.2561681 85.8744597,76.7894444 C85.8744597,62.6102907 72.2495995,58.2064124 61.011576,58.189731 C56.3629877,58.1897311 52.0675149,55.6938638 49.7432207,51.6422983 C47.4189264,47.5907328 47.4189264,42.5989982 49.7432207,38.5474327 C52.0675149,34.4958671 56.3629877,31.9999999 61.011576,32 L60.9950008,32.0667254 Z" id="Shape"></path>
                <path d="M26.0302325,47.5172257 C26.0980355,48.0442581 26.131131,48.5748874 26.1293209,49.1059378 C26.1293209,49.8526325 26.1293209,50.5516658 26.244924,51.2348121 C27.7973093,62.7847491 40.3815386,66.4705613 50.9014259,66.4864484 C57.2031762,66.4848486 62.5884388,70.8534671 63.6508026,76.8289643 C63.9019487,77.81643 64.0185296,78.8311241 63.9976121,79.8475173 C63.9455478,83.1636631 62.5225868,86.3232841 60.0433278,88.6278278 C57.5640689,90.9323715 54.232728,92.1920132 50.7858227,92.1282619 C36.7482966,91.9376165 32.206744,104.965056 32.0415966,115.768298 C31.9041012,122.648096 26.0002938,128.120792 18.8485297,127.997973 C11.6967657,127.875153 5.99976816,122.203233 6.11761495,115.323098 C6.23546173,108.442963 12.1236174,102.954684 19.2757052,103.058601 C32.8012745,103.249247 37.4419155,91.1273733 37.9869018,80.5783248 C37.9067609,80.0203414 37.8681283,79.4575661 37.8712987,78.89429 C37.8703497,78.1511027 37.8262417,77.4085467 37.7391808,76.670093 C36.0877071,65.1837044 23.5860514,61.5296666 13.0991937,61.5137794 C6.79615122,61.5100832 1.40923459,57.1457761 0.333302202,51.1712636 C-0.563810473,47.433494 0.372343714,43.5064188 2.87282984,40.5181937 C5.37331596,37.5299685 9.16135677,35.8113582 13.1487379,35.8560788 C27.186264,36.0626113 31.7278166,23.035172 31.892964,12.2319296 C32.0302869,5.3541662 37.9306713,-0.117848902 45.0803731,0.00192944739 C52.2300749,0.121707797 57.9288251,5.78804223 57.8171282,12.6662349 C57.7054312,19.5444276 51.8254723,25.036752 44.6753702,24.9416265 C31.1498008,24.7668682 26.4265861,36.8887416 25.9641735,47.4377901 L26.0302325,47.5172257 Z" id="Shape"></path>
            </g>
        </g>
    </g>
</svg>