<svg width="500" height="500" viewBox="0 0 500 500" fill="none" xmlns="http://www.w3.org/2000/svg">
<circle cx="250" cy="250" r="250" fill="url(#paint0_linear)"/>
<path d="M377.416 290.18C374.741 289.049 371.727 289.026 369.035 290.116C366.344 291.205 364.195 293.318 363.06 295.99C354.871 315.404 341.563 332.232 324.556 344.677C307.549 357.123 287.481 364.72 266.494 366.657V325.006C277.598 323.359 288.196 319.26 297.517 313.006C306.838 306.751 314.648 298.499 320.379 288.85C321.184 287.612 321.731 286.223 321.986 284.769C322.241 283.314 322.2 281.823 321.864 280.385C321.528 278.947 320.904 277.591 320.031 276.4C319.157 275.209 318.052 274.207 316.781 273.454C315.51 272.7 314.1 272.212 312.636 272.017C311.172 271.822 309.683 271.926 308.259 272.321C306.836 272.716 305.507 273.395 304.353 274.317C303.198 275.238 302.242 276.384 301.542 277.684C297.756 284.051 292.689 289.562 286.662 293.87C280.635 298.177 273.779 301.188 266.529 302.71V254.863C266.371 252.069 265.149 249.442 263.114 247.52C261.08 245.598 258.386 244.527 255.587 244.527C252.788 244.527 250.094 245.598 248.06 247.52C246.025 249.442 244.804 252.069 244.645 254.863V302.815C235.758 300.964 227.49 296.876 220.624 290.939C213.758 285.003 208.521 277.413 205.407 268.888C202.294 260.363 201.408 251.186 202.833 242.223C204.258 233.26 207.946 224.809 213.55 217.67C219.153 210.53 226.486 204.937 234.855 201.42C243.224 197.904 252.352 196.58 261.376 197.574C270.4 198.568 279.02 201.847 286.423 207.101C293.825 212.354 299.764 219.409 303.678 227.597C304.305 228.903 305.184 230.072 306.264 231.038C307.343 232.004 308.603 232.748 309.97 233.227C311.337 233.706 312.785 233.912 314.232 233.832C315.678 233.752 317.095 233.388 318.401 232.76C319.707 232.133 320.876 231.254 321.842 230.175C322.809 229.096 323.553 227.837 324.032 226.47C324.512 225.104 324.717 223.656 324.637 222.21C324.557 220.764 324.193 219.348 323.565 218.042C317.951 206.345 309.406 196.298 298.76 188.878C288.114 181.457 275.729 176.916 262.808 175.695C249.887 174.474 236.87 176.614 225.021 181.908C213.173 187.203 202.895 195.47 195.188 205.909C187.48 216.347 182.605 228.601 181.035 241.48C179.465 254.358 181.254 267.424 186.228 279.407C191.202 291.39 199.192 301.884 209.422 309.867C219.652 317.851 231.774 323.054 244.61 324.971V366.692C224.12 364.762 204.505 357.447 187.756 345.489C171.007 333.532 157.72 317.358 149.245 298.61C140.769 279.861 137.406 259.204 139.497 238.736C141.587 218.268 149.057 198.717 161.149 182.068C173.24 165.418 189.522 152.263 208.343 143.936C227.164 135.61 247.853 132.408 268.311 134.658C288.77 136.907 308.268 144.527 324.829 156.743C341.39 168.959 354.422 185.338 362.605 204.217C363.82 206.789 365.989 208.788 368.653 209.791C371.316 210.793 374.265 210.721 376.876 209.589C379.487 208.457 381.555 206.353 382.642 203.724C383.73 201.095 383.751 198.146 382.703 195.501C370.031 166.226 347.64 142.22 319.31 127.539C290.981 112.859 258.451 108.404 227.216 114.927C195.981 121.45 167.955 138.551 147.874 163.341C127.794 188.131 116.888 219.09 117.001 250.989C117.113 282.887 128.237 313.769 148.492 338.417C168.748 363.064 196.893 379.967 228.174 386.27C259.454 392.572 291.952 387.888 320.177 373.008C348.402 358.128 370.623 333.964 383.088 304.6C383.663 303.281 383.972 301.862 383.998 300.423C384.024 298.984 383.767 297.554 383.24 296.215C382.713 294.876 381.928 293.654 380.928 292.618C379.929 291.583 378.735 290.754 377.416 290.18V290.18Z" fill="white"/>
<defs>
<linearGradient id="paint0_linear" x1="417" y1="65.5" x2="84.5" y2="442" gradientUnits="userSpaceOnUse">
<stop stop-color="#2AA43C"/>
<stop offset="1" stop-color="#027383"/>
</linearGradient>
</defs>
</svg>
