<?xml version="1.0" encoding="UTF-8"?>
<svg width="256px" height="256px" viewBox="0 0 256 256" version="1.1" xmlns="http://www.w3.org/2000/svg" xmlns:xlink="http://www.w3.org/1999/xlink">
    <!-- Generator: Sketch 51.3 (57544) - http://www.bohemiancoding.com/sketch -->
    <title>Group 8</title>
    <desc>Created with Sketch.</desc>
    <defs>
        <linearGradient x1="-7.91938904%" y1="109.335224%" x2="112.3414%" y2="-7.00715859%" id="linearGradient-1">
            <stop stop-color="#FE8C00" offset="0%"></stop>
            <stop stop-color="#F83600" offset="100%"></stop>
        </linearGradient>
        <polygon id="path-2" points="0 0 112 0 112 137.846154 0 137.846154"></polygon>
    </defs>
    <g id="Symbols" stroke="none" stroke-width="1" fill="none" fill-rule="evenodd">
        <g id="Group-8">
            <circle id="Oval-5-Copy" fill="url(#linearGradient-1)" cx="128" cy="128" r="128"></circle>
            <g id="Group-Copy-4" transform="translate(72.000000, 59.000000)">
                <g id="Group-3">
                    <mask id="mask-3" fill="white">
                        <use xlink:href="#path-2"></use>
                    </mask>
                    <g id="Clip-2"></g>
                    <path d="M90.9244283,107.718805 C90.9265952,107.566802 90.9276787,107.4148 90.9276787,107.26386 L90.9276787,91.5002295 L101.396123,83.0125295 L101.396123,90.1237021 C101.396123,96.1400304 98.6950431,101.79708 93.9863019,105.64179 C93.0458538,106.413496 92.0165615,107.111857 90.9244283,107.718805 M46.676779,115.398659 L75.1881747,120.504034 C75.2250126,120.510412 75.2629339,120.51679 75.3019386,120.521042 C74.41133,121.624389 73.6572379,122.417354 72.9323995,123.011546 C68.2366598,126.855194 62.0977441,128.441123 56.0899276,127.36116 L27.466935,122.239841 C17.6962427,120.485964 10.6038773,112.033342 10.6038773,102.141477 L10.6038773,47.8999193 C10.6038773,41.9091019 13.2984561,36.2658709 17.9952792,32.415846 C18.9465619,31.6388255 19.9834385,30.9394008 21.0788221,30.335642 C21.0744883,30.5184704 21.0734048,30.7002358 21.0734048,30.8841271 L21.0734048,85.2819396 C21.0734048,100.071903 31.8408853,112.738081 46.676779,115.398659 M65.36981,22.6961806 L36.7500677,17.5727349 C36.7002283,17.5642312 36.6514724,17.5557276 36.6016329,17.5472239 L36.5745463,17.5429721 C37.3416399,16.6575302 38.186743,15.8358655 39.0860194,15.0992373 C43.7427543,11.2896047 50.0593584,9.66009386 55.9848315,10.7400567 L84.4973107,15.8464951 C94.2885888,17.6014347 101.396123,25.96158 101.396123,35.7237636 L101.396123,46.0960837 L90.9276787,54.5827208 L90.9276787,52.7576261 C90.9276787,37.9910478 80.1797005,25.3482546 65.36981,22.6961806 M83.0357157,71.0181393 C84.707503,71.7909079 86.6328213,71.5538688 88.0575785,70.3994991 L110.304376,52.3430734 C111.382425,51.4661351 112,50.1757071 112,48.8023685 L112,35.7237636 C112,20.9316744 101.232519,8.26655916 86.3966258,5.60917031 L57.88523,0.503794871 C48.7591998,-1.13634552 39.4338119,1.27018581 32.3002747,7.11006353 C28.8451031,9.93327344 25.9370816,13.7620393 23.8893317,18.1818084 C19.2488488,19.2724008 14.8640638,21.4312635 11.208451,24.4256092 C4.08574856,30.2537944 0,38.8095235 0,47.8999193 L0,102.40509 C0,117.171669 10.752312,129.815525 25.5676199,132.467599 L54.177611,137.589982 C55.4246798,137.816391 56.6674148,137.846154 57.7183763,137.846154 C58.0705027,137.846154 58.420462,137.842965 58.7660875,137.83765 L59.8072979,137.831272 C67.3807221,137.831272 74.2683125,135.469385 79.7289788,131.00072 C83.3076655,128.074404 86.217854,124.321108 88.1464226,120.145818 C95.7209302,118.338794 102.418914,113.59376 107.011725,106.783404 C110.275123,101.943768 112,96.1155824 112,89.9291812 L112,71.9460994 C112,69.9169173 110.836358,68.1173336 108.96413,67.2510248 C107.089734,66.385779 104.935805,66.6515179 103.33986,67.9451348 L82.098518,85.1607627 C81.0367217,86.0217567 80.3238014,87.6130011 80.3238014,89.121335 L80.3238014,107.26386 C80.3238014,108.271542 80.241458,109.305798 80.0789382,110.337928 C79.9023333,110.343242 79.724645,110.347494 79.5469566,110.353872 L79.5014511,110.354935 C78.6639322,110.381509 77.8730024,110.405957 77.097241,110.265647 L48.5847618,105.160271 C38.7880664,103.407457 31.677282,95.0483751 31.677282,85.2819396 L31.677282,30.8841271 C31.677282,29.8562491 31.7628758,28.8028601 31.930813,27.7526601 C32.9330186,27.7909265 33.9157219,27.896159 34.8550865,28.065169 L63.4607437,32.9239387 C73.231436,34.6778154 80.3238014,43.0188275 80.3238014,52.7576261 L80.3238014,66.8258426 C80.3238014,68.6392448 81.3628449,70.2464335 83.0357157,71.0181393" id="Fill-1" fill="#FFFFFF" mask="url(#mask-3)"></path>
                </g>
            </g>
        </g>
    </g>
</svg>