<svg width="90" height="40" viewBox="0 0 90 40" fill="none" xmlns="http://www.w3.org/2000/svg">
<path d="M0 7.8125C0 3.49778 3.49778 0 7.8125 0H81.5625C85.8772 0 89.375 3.49778 89.375 7.8125V32.1875C89.375 36.5022 85.8772 40 81.5625 40H7.8125C3.49778 40 0 36.5022 0 32.1875V7.8125Z" fill="#528B85"/>
<path d="M22.8987 20.3364C23.2193 20.4868 23.5999 20.4401 23.8729 20.2169L28.1895 16.7147C28.398 16.5454 28.5185 16.2936 28.5179 16.028V13.4915C28.5182 10.6231 26.4279 8.16471 23.5512 7.65041L18.0209 6.6607C16.254 6.341 14.4339 6.81067 13.056 7.94184C12.3562 8.52913 11.7994 9.26282 11.4267 10.089C8.70991 10.729 6.7941 13.112 6.79272 15.8528V26.4241C6.79224 29.2878 8.87965 31.7419 11.7517 32.2544L17.3015 33.2508C17.5283 33.2878 17.758 33.3045 17.9879 33.3006H18.1919H18.3933C19.8627 33.3006 21.1983 32.8431 22.258 31.9763C22.9566 31.4015 23.5143 30.6799 23.8898 29.8648C25.3591 29.5144 26.6583 28.5945 27.5487 27.2735C28.1918 26.3009 28.5284 25.1639 28.5162 24.0046V20.5174C28.5164 20.1276 28.2871 19.7727 27.9277 19.6066C27.5682 19.4404 27.1433 19.4928 26.8369 19.7411L22.7167 23.0805C22.4968 23.2776 22.3717 23.5564 22.3722 23.8485V27.3673C22.3718 27.5669 22.356 27.7662 22.3248 27.9635H22.2216H22.2123C22.0566 27.9741 21.9003 27.9682 21.7459 27.946L16.2156 26.9563C14.3176 26.617 12.9381 24.9955 12.9375 23.1029V12.5524C12.9376 12.3492 12.954 12.1462 12.9866 11.9455C13.1769 11.9523 13.3664 11.9726 13.5537 12.0061L19.1018 12.9485C20.9963 13.2871 22.3732 14.9061 22.3731 16.7952V19.5236C22.3709 19.8721 22.5763 20.1898 22.8987 20.3364ZM19.4725 10.9633L13.921 9.96692H13.8922H13.8872C14.8103 8.89688 16.2464 8.39298 17.6519 8.64593L23.1822 9.6348C25.0808 9.97419 26.4605 11.5967 26.4603 13.4898V15.5016L24.4289 17.1473V16.7936C24.43 13.9306 22.3437 11.4765 19.4725 10.9633ZM15.8491 28.944L21.3794 29.9346H21.4014C21.2653 30.1105 21.1113 30.2724 20.9418 30.4178C20.035 31.1618 18.8375 31.471 17.6748 31.2614L12.125 30.2708C10.2161 29.9171 8.83876 28.2741 8.85345 26.3685V15.8528C8.85235 14.6933 9.37607 13.5931 10.2832 12.8497C10.4699 12.6978 10.6702 12.5627 10.8816 12.4462C10.8816 12.4819 10.8816 12.5176 10.8816 12.5524V23.1029C10.8814 25.9716 12.9721 28.4301 15.8491 28.944ZM24.4315 27.4545C24.4315 27.4254 24.4315 27.3955 24.4315 27.3665V24.3094L26.4628 22.6629V24.042C26.4646 25.2055 25.937 26.3091 25.024 27.0518C24.8387 27.2037 24.6395 27.3385 24.4289 27.4545H24.4315Z" fill="white"/>
<path d="M36.056 21.517C36.056 22.86 36.4352 23.9118 37.1936 24.6723C37.952 25.4328 38.9686 25.8131 40.2434 25.8131C41.5182 25.8131 42.5187 25.4328 43.2448 24.6723C43.9871 23.9118 44.3582 22.86 44.3582 21.517V11.517H47.6017V21.517C47.6017 22.9895 47.3032 24.2759 46.7061 25.3762C46.109 26.4604 45.2538 27.2937 44.1404 27.8762C43.0431 28.4587 41.7441 28.75 40.2434 28.75C38.7266 28.75 37.4034 28.4587 36.2738 27.8762C35.1604 27.2937 34.3051 26.4604 33.7081 25.3762C33.111 24.2759 32.8125 22.9895 32.8125 21.517V11.517H36.056V21.517Z" fill="white"/>
<path d="M62.0728 15.8859C61.2014 15.3519 60.3058 14.9393 59.386 14.6481C58.4824 14.3568 57.6836 14.2112 56.9898 14.2112C56.2152 14.2112 55.602 14.3568 55.1502 14.6481C54.6984 14.9393 54.4725 15.3439 54.4725 15.8617C54.4725 16.3309 54.6258 16.7273 54.9324 17.051C55.2551 17.3584 55.6504 17.6173 56.1184 17.8277C56.6025 18.0218 57.256 18.2403 58.079 18.483C59.2247 18.8228 60.1606 19.1626 60.8867 19.5024C61.629 19.8422 62.2584 20.3439 62.7747 21.0073C63.2911 21.6707 63.5493 22.5445 63.5493 23.6286C63.5493 24.6642 63.2669 25.5704 62.7021 26.3471C62.1535 27.1076 61.387 27.6901 60.4027 28.0947C59.4345 28.4992 58.321 28.7015 57.0624 28.7015C55.7392 28.7015 54.4483 28.4587 53.1896 27.9733C51.9309 27.4717 50.8337 26.8083 49.8977 25.983L51.2532 23.216C52.1084 24.0089 53.0686 24.6319 54.1336 25.085C55.1986 25.538 56.191 25.7646 57.1108 25.7646C58.0144 25.7646 58.7244 25.5947 59.2408 25.2549C59.7572 24.8989 60.0154 24.4215 60.0154 23.8228C60.0154 23.3374 59.854 22.9409 59.5313 22.6335C59.2247 22.3099 58.8293 22.051 58.3452 21.8568C57.8611 21.6626 57.1995 21.4442 56.3604 21.2015C55.2147 20.8616 54.2788 20.5299 53.5527 20.2063C52.8265 19.8827 52.2053 19.3972 51.6889 18.75C51.1725 18.0866 50.9143 17.2209 50.9143 16.1529C50.9143 15.1659 51.1725 14.3083 51.6889 13.5801C52.2214 12.8358 52.9637 12.2613 53.9157 11.8568C54.8839 11.4523 55.9974 11.25 57.256 11.25C58.3533 11.25 59.4345 11.4118 60.4995 11.7354C61.5806 12.0591 62.5407 12.496 63.3799 13.0461L62.0728 15.8859Z" fill="white"/>
<path d="M73.6652 11.517C75.3596 11.517 76.8764 11.8811 78.2157 12.6092C79.5551 13.3212 80.604 14.3244 81.3624 15.6189C82.1208 16.9134 82.5 18.3778 82.5 20.0121C82.5 21.6464 82.1127 23.1108 81.3382 24.4053C80.5797 25.6837 79.5228 26.6869 78.1673 27.415C76.8119 28.1432 75.2708 28.5073 73.5442 28.5073H66.6216V11.517H73.6652ZM73.7378 25.6432C74.7706 25.6432 75.6984 25.4086 76.5214 24.9393C77.3605 24.4539 78.014 23.7905 78.482 22.949C78.95 22.0914 79.1839 21.1206 79.1839 20.0364C79.1839 18.9523 78.9419 17.9814 78.4578 17.1238C77.9737 16.25 77.304 15.5785 76.4488 15.1092C75.6097 14.6238 74.6657 14.3811 73.6168 14.3811H69.8651V25.6432H73.7378Z" fill="white"/>
</svg>
